<?xml version="1.0" encoding="UTF-8"?>
<svg width="64px" height="64px" viewBox="0 0 64 64" version="1.1" xmlns="http://www.w3.org/2000/svg" xmlns:xlink="http://www.w3.org/1999/xlink">
    <!-- Generator: Sketch 41.2 (35397) - http://www.bohemiancoding.com/sketch -->
    <title>Header</title>
    <desc>Created with Sketch.</desc>
    <defs>
        <filter x="-50%" y="-50%" width="200%" height="200%" filterUnits="objectBoundingBox" id="filter-1">
            <feOffset dx="2" dy="2" in="SourceAlpha" result="shadowOffsetOuter1"></feOffset>
            <feGaussianBlur stdDeviation="1" in="shadowOffsetOuter1" result="shadowBlurOuter1"></feGaussianBlur>
            <feColorMatrix values="0 0 0 0 0   0 0 0 0 0   0 0 0 0 0  0 0 0 0.150956748 0" type="matrix" in="shadowBlurOuter1" result="shadowMatrixOuter1"></feColorMatrix>
            <feMerge>
                <feMergeNode in="shadowMatrixOuter1"></feMergeNode>
                <feMergeNode in="SourceGraphic"></feMergeNode>
            </feMerge>
        </filter>
        <linearGradient x1="50%" y1="0%" x2="50%" y2="100%" id="linearGradient-2">
            <stop stop-color="#B4ED50" offset="0%"></stop>
            <stop stop-color="#429321" offset="100%"></stop>
        </linearGradient>
    </defs>
    <g id="Landing" stroke="none" stroke-width="1" fill="none" fill-rule="evenodd">
        <g transform="translate(-770.000000, -103.000000)" id="Header" fill="url(#linearGradient-2)">
            <g filter="url(#filter-1)" transform="translate(770.000000, 103.000000)">
                <g id="leaves">
                    <path d="M29.9996868,0 C13.4573585,0 0,13.4604905 0,29.9996868 C0,46.5420151 13.4573585,60 29.9996868,60 C46.5420151,60 60,46.5426415 60,29.9996868 C59.9993736,13.4604905 46.5420151,0 29.9996868,0 L29.9996868,0 Z M40.2135989,30.5903724 C40.1691252,29.5762473 39.7506969,28.7844906 39.5947258,28.0910771 C39.1806821,26.7117667 38.9407748,25.9193836 38.9407748,25.9193836 C38.9407748,25.9193836 39.2345517,26.6923486 39.7550816,28.0353284 C39.963043,28.7243572 40.4416048,29.5054653 40.56563,30.5152056 C40.7541733,31.5067807 40.969025,32.638667 41.2045476,33.8601272 C41.2584171,35.1122804 41.3204297,36.4665351 41.3761784,37.9028469 C41.2452629,39.3247518 41.1594475,40.8437471 40.9602556,42.4003257 C40.6257634,43.930596 40.4221867,45.5560775 39.9567791,47.1295687 C39.4851076,48.711203 39.0860973,50.3448276 38.4603339,51.8926368 C38.033136,53.0890413 37.5595853,54.2509944 37.0710013,55.4035516 C36.1489555,55.6609978 35.2043597,55.8645745 34.2453569,56.021172 C35.1141595,54.4558239 35.9560274,52.863541 36.671991,51.1804316 C37.3942184,49.7184378 37.8871872,48.179398 38.4559491,46.6829528 C39.0215791,45.1821228 39.3285101,43.6393248 39.7632247,42.177331 C40.0651445,40.6852704 40.2499295,39.2232766 40.4835729,37.8452191 C40.5261674,36.4489962 40.5650036,35.1248082 40.6094773,33.909612 C40.4629021,32.6944157 40.3276019,31.5800683 40.2135989,30.5903724 L40.2135989,30.5903724 Z M41.4701369,53.736102 C42.0100849,53.2644305 42.5544176,52.7651978 43.0906073,52.2246234 C45.1395283,50.1155689 46.9980269,47.4853581 48.3729525,44.4887093 C49.8211657,41.5133578 50.6705503,38.1521501 50.996273,34.6838297 C51.2787748,31.2155094 51.0263397,27.6288014 50.0059507,24.2381534 C49.0582229,20.8556485 47.4164553,17.6692035 45.346237,15.1818096 C43.2728867,12.6975477 40.7867456,10.9925146 38.8512011,10.2884525 C37.93354,9.88255191 37.0114943,9.81740737 36.475931,9.74850449 C35.9228288,9.71843778 35.6271728,9.70590999 35.6271728,9.70590999 C35.6271728,9.70590999 35.5845783,9.99342291 35.4918726,10.5239751 C35.4104419,11.0269661 35.0997526,11.8306242 34.8811425,12.5985781 C34.3042375,14.2560055 33.3627737,16.1477027 32.3085596,18.2116571 C30.2746719,22.2844436 28.4023928,27.2460772 28.0002506,32.7251088 C27.798553,35.4386295 27.816092,38.2467349 28.2614551,41.0041029 C28.6429265,43.7433055 29.35889,46.4311441 30.2151649,48.8277115 C30.862852,50.589746 32.1532149,54.190861 33.0376773,56.2015722 C32.1619844,56.2999154 31.2712581,56.3556641 30.3705096,56.3688183 C29.861881,55.8783551 29.3526261,55.3828808 28.8565254,54.86423 C27.824235,53.8826772 26.9422782,52.7464061 26.0227379,51.6790379 C25.1075824,50.6160544 24.3828494,49.4277929 23.586708,48.3478969 C22.8857778,47.2122522 22.2863228,46.0546838 21.6849886,44.9998434 C21.2283504,43.8548028 20.8005262,42.7874346 20.403395,41.7927276 C20.1578502,40.7554261 19.9273388,39.8033136 19.726894,38.9608193 C19.4707006,38.1333584 19.5696702,37.3553823 19.4901187,36.7490369 C19.4249742,35.5206865 19.383006,34.812866 19.383006,34.812866 C19.383006,34.812866 19.4750853,35.5163018 19.6348147,36.7333772 C19.755708,37.3290739 19.707476,38.0926431 20.0263084,38.8981803 C20.284381,39.7087287 20.5731467,40.6176203 20.8813305,41.6185912 C21.3411006,42.5512857 21.8359485,43.5672899 22.358984,44.6390429 C23.0217044,45.6268596 23.6806665,46.7011181 24.4348398,47.7559585 C25.2867299,48.7444016 26.0659588,49.8374518 27.0318519,50.808356 C27.9958658,51.7711172 28.92167,52.7977701 29.9953021,53.6853644 C30.27154,53.9403051 30.5678224,54.1658054 30.8509505,54.409471 C30.4713583,53.4059946 30.0736008,52.3242194 29.6664474,51.2073663 L29.310658,50.2383413 C28.338501,47.520436 27.6331861,44.6910332 27.2648689,42.0432835 C26.8433086,39.4475242 26.7512293,36.6012089 26.9905102,33.3790598 C27.0324783,32.8409909 27.0894798,32.3004165 27.1558771,31.7648533 C25.4721413,29.72846 23.6374456,27.9620408 21.8434652,26.4981678 C20.3012935,25.2623007 18.9044442,24.115381 17.8752858,23.0317266 C17.433681,22.5086912 16.9137774,21.9931724 16.6738701,21.631119 C16.4157976,21.2471421 16.2836293,21.0404335 16.2836293,21.0404335 C16.2836293,21.0404335 16.054997,21.1531836 15.6359422,21.3692881 C15.2444486,21.6135801 14.5491559,21.9906668 13.9735037,22.6233205 C12.7138338,23.8485389 11.3796235,26.0477935 10.6348461,28.7055655 C9.89507971,31.3696013 9.73159197,34.4219988 10.1800871,37.3892073 C10.5734599,40.3814714 11.6289267,43.26537 13.0652385,45.8648877 C14.5334962,48.4543832 16.3706975,50.7676407 18.5411382,52.57916 C19.7243885,53.6120768 20.9871903,54.4871433 22.2731686,55.2344264 C11.4804723,51.9227035 3.60863165,41.867268 3.60863165,30.0021924 C3.60863165,15.4517836 15.4486517,3.61113721 29.9996868,3.61113721 C44.5507219,3.61113721 56.3901156,15.4536628 56.3901156,30.0021924 C56.3894892,40.4409784 50.2840678,49.4553541 41.4701369,53.736102 L41.4701369,53.736102 Z" id="Shape"></path>
                </g>
            </g>
        </g>
    </g>
</svg>