<?xml version="1.0" encoding="UTF-8"?>
<svg width="216px" height="64px" viewBox="0 0 216 64" version="1.1" xmlns="http://www.w3.org/2000/svg" xmlns:xlink="http://www.w3.org/1999/xlink">
    <!-- Generator: Sketch 41.2 (35397) - http://www.bohemiancoding.com/sketch -->
    <title>apple download button</title>
    <desc>Created with Sketch.</desc>
    <defs></defs>
    <g id="home" stroke="none" stroke-width="1" fill="none" fill-rule="evenodd">
        <g id="tabtor__home" transform="translate(-728.000000, -640.000000)">
            <g id="intro" transform="translate(32.000000, 88.000000)">
                <g id="hero">
                    <g id="apple-download-button" transform="translate(696.000000, 552.000000)">
                        <path d="M208.3152,64 L7.5664,64 C3.3952,64 0,60.5952 0,56.4272 L0,7.5616 C0,3.392 3.3952,0 7.5664,0 L208.3152,0 C212.4848,0 216,3.392 216,7.5616 L216,56.4272 C216,60.5952 212.4848,64 208.3152,64 L208.3152,64 L208.3152,64 Z" id="Shape" fill="#A6A6A6"></path>
                        <path d="M214.4512,56.4288 C214.4512,59.8144 211.7088,62.5568 208.3168,62.5568 L7.5664,62.5568 C4.176,62.5568 1.424,59.8144 1.424,56.4288 L1.424,7.56 C1.424,4.176 4.176,1.424 7.5664,1.424 L208.3152,1.424 C211.7088,1.424 214.4496,4.176 214.4496,7.56 L214.4512,56.4288 L214.4512,56.4288 L214.4512,56.4288 Z" id="Shape" fill="#000000"></path>
                        <g id="Group" transform="translate(19.200000, 9.600000)" fill="#FFFFFF">
                            <path d="M29.0048,22.0544 C28.9584,16.8976 33.2272,14.3888 33.4224,14.272 C31.0048,10.7472 27.2576,10.2656 25.9408,10.2272 C22.7936,9.896 19.7408,12.1104 18.1376,12.1104 C16.5024,12.1104 14.0336,10.2592 11.3728,10.3136 C7.9488,10.3664 4.7456,12.3488 2.9888,15.4272 C-0.6368,21.704 2.0672,30.928 5.5408,36.0016 C7.2784,38.4864 9.3088,41.2608 11.9664,41.1632 C14.5664,41.056 15.5376,39.5056 18.6752,39.5056 C21.784,39.5056 22.696,41.1632 25.4064,41.1008 C28.1968,41.056 29.9536,38.6048 31.6304,36.0976 C33.6384,33.2496 34.4448,30.4448 34.4768,30.3008 C34.4112,30.2784 29.0576,28.2352 29.0048,22.0544 L29.0048,22.0544 Z" id="Shape"></path>
                            <path d="M23.8848,6.8896 C25.2832,5.1408 26.24,2.7616 25.9744,0.3472 C23.9504,0.4368 21.4192,1.7472 19.9616,3.4576 C18.672,4.9648 17.52,7.4352 17.8176,9.7584 C20.0912,9.928 22.4256,8.6112 23.8848,6.8896 L23.8848,6.8896 Z" id="Shape"></path>
                        </g>
                        <g id="Group" transform="translate(67.200000, 28.800000)" fill="#FFFFFF">
                            <path d="M18.632,21.6064 L14.9984,21.6064 L13.008,15.352 L6.0896,15.352 L4.1936,21.6064 L0.656,21.6064 L7.5104,0.3136 L11.744,0.3136 L18.632,21.6064 L18.632,21.6064 Z M12.408,12.728 L10.608,7.168 C10.4176,6.6 10.0608,5.2624 9.5344,3.1568 L9.4704,3.1568 C9.2608,4.0624 8.9232,5.4 8.4592,7.168 L6.6912,12.728 L12.408,12.728 L12.408,12.728 Z" id="Shape"></path>
                            <path d="M36.2592,13.7408 C36.2592,16.352 35.5536,18.416 34.1424,19.9312 C32.8784,21.28 31.3088,21.9536 29.4352,21.9536 C27.4128,21.9536 25.96,21.2272 25.0752,19.7744 L25.0112,19.7744 L25.0112,27.8624 L21.6,27.8624 L21.6,11.3072 C21.6,9.6656 21.5568,7.9808 21.4736,6.2528 L24.4736,6.2528 L24.664,8.6864 L24.728,8.6864 C25.8656,6.8528 27.592,5.9376 29.9088,5.9376 C31.72,5.9376 33.232,6.6528 34.4416,8.0848 C35.6544,9.5184 36.2592,11.4032 36.2592,13.7408 L36.2592,13.7408 Z M32.784,13.8656 C32.784,12.3712 32.448,11.1392 31.7728,10.1696 C31.0352,9.1584 30.0448,8.6528 28.8032,8.6528 C27.9616,8.6528 27.1968,8.9344 26.5136,9.4896 C25.8288,10.0496 25.3808,10.7808 25.1712,11.6864 C25.0656,12.1088 25.0128,12.4544 25.0128,12.7264 L25.0128,15.2864 C25.0128,16.4032 25.3552,17.3456 26.04,18.1152 C26.7248,18.8848 27.6144,19.2688 28.7088,19.2688 C29.9936,19.2688 30.9936,18.7728 31.7088,17.784 C32.4256,16.7936 32.784,15.488 32.784,13.8656 L32.784,13.8656 Z" id="Shape"></path>
                            <path d="M53.9184,13.7408 C53.9184,16.352 53.2128,18.416 51.8,19.9312 C50.5376,21.28 48.968,21.9536 47.0944,21.9536 C45.072,21.9536 43.6192,21.2272 42.736,19.7744 L42.672,19.7744 L42.672,27.8624 L39.2608,27.8624 L39.2608,11.3072 C39.2608,9.6656 39.2176,7.9808 39.1344,6.2528 L42.1344,6.2528 L42.3248,8.6864 L42.3888,8.6864 C43.5248,6.8528 45.2512,5.9376 47.5696,5.9376 C49.3792,5.9376 50.8912,6.6528 52.104,8.0848 C53.312,9.5184 53.9184,11.4032 53.9184,13.7408 L53.9184,13.7408 Z M50.4432,13.8656 C50.4432,12.3712 50.1056,11.1392 49.4304,10.1696 C48.6928,9.1584 47.7056,8.6528 46.4624,8.6528 C45.6192,8.6528 44.856,8.9344 44.1712,9.4896 C43.4864,10.0496 43.04,10.7808 42.8304,11.6864 C42.7264,12.1088 42.672,12.4544 42.672,12.7264 L42.672,15.2864 C42.672,16.4032 43.0144,17.3456 43.696,18.1152 C44.3808,18.8832 45.2704,19.2688 46.368,19.2688 C47.6528,19.2688 48.6528,18.7728 49.368,17.784 C50.0848,16.7936 50.4432,15.488 50.4432,13.8656 L50.4432,13.8656 Z" id="Shape"></path>
                            <path d="M73.6624,15.6352 C73.6624,17.4464 73.0336,18.92 71.7712,20.0576 C70.384,21.3008 68.4528,21.9216 65.9712,21.9216 C63.68,21.9216 61.8432,21.48 60.4528,20.5952 L61.2432,17.752 C62.7408,18.6576 64.384,19.112 66.1744,19.112 C67.4592,19.112 68.4592,18.8208 69.1776,18.2416 C69.8928,17.6624 70.2496,16.8848 70.2496,15.9152 C70.2496,15.0512 69.9552,14.3232 69.3648,13.7328 C68.7776,13.1424 67.7968,12.5936 66.4272,12.0864 C62.6992,10.696 60.8368,8.6592 60.8368,5.9808 C60.8368,4.2304 61.4896,2.7952 62.7968,1.6784 C64.0992,0.56 65.8368,0.0016 68.0096,0.0016 C69.9472,0.0016 71.5568,0.3392 72.8416,1.0128 L71.9888,3.7936 C70.7888,3.1408 69.432,2.8144 67.9136,2.8144 C66.7136,2.8144 65.776,3.1104 65.104,3.6992 C64.536,4.2256 64.2512,4.8672 64.2512,5.6272 C64.2512,6.4688 64.576,7.1648 65.2288,7.712 C65.7968,8.2176 66.8288,8.7648 68.3264,9.3552 C70.1584,10.0928 71.504,10.9552 72.3696,11.944 C73.232,12.9296 73.6624,14.1632 73.6624,15.6352 L73.6624,15.6352 Z" id="Shape"></path>
                            <path d="M84.9408,8.8128 L81.1808,8.8128 L81.1808,16.2672 C81.1808,18.1632 81.8432,19.1104 83.1712,19.1104 C83.7808,19.1104 84.2864,19.0576 84.6864,18.952 L84.7808,21.5424 C84.1088,21.7936 83.224,21.92 82.128,21.92 C80.7808,21.92 79.728,21.5088 78.968,20.688 C78.2112,19.8656 77.8304,18.4864 77.8304,16.5488 L77.8304,8.8096 L75.5904,8.8096 L75.5904,6.2496 L77.8304,6.2496 L77.8304,3.4384 L81.1808,2.4272 L81.1808,6.2496 L84.9408,6.2496 L84.9408,8.8128 L84.9408,8.8128 Z" id="Shape"></path>
                            <path d="M101.9056,13.8032 C101.9056,16.1632 101.2304,18.1008 99.8832,19.616 C98.4704,21.176 96.5952,21.9536 94.2576,21.9536 C92.0048,21.9536 90.2112,21.2064 88.8736,19.712 C87.536,18.2176 86.8672,16.3312 86.8672,14.0576 C86.8672,11.6784 87.5552,9.7296 88.936,8.2144 C90.3136,6.6976 92.1728,5.9392 94.5104,5.9392 C96.7632,5.9392 98.576,6.6864 99.944,8.1824 C101.2528,9.6336 101.9056,11.5072 101.9056,13.8032 L101.9056,13.8032 Z M98.3664,13.9136 C98.3664,12.4976 98.064,11.2832 97.4512,10.2704 C96.736,9.0448 95.7136,8.4336 94.3888,8.4336 C93.0176,8.4336 91.976,9.0464 91.2608,10.2704 C90.648,11.2848 90.3456,12.5184 90.3456,13.9776 C90.3456,15.3936 90.648,16.608 91.2608,17.6192 C91.9984,18.8448 93.0288,19.456 94.3584,19.456 C95.6608,19.456 96.6832,18.832 97.4208,17.5872 C98.0496,16.5552 98.3664,15.328 98.3664,13.9136 L98.3664,13.9136 Z" id="Shape"></path>
                            <path d="M112.9936,9.2528 C112.656,9.1904 112.296,9.1584 111.9184,9.1584 C110.7184,9.1584 109.7904,9.6112 109.1376,10.5184 C108.5696,11.3184 108.2848,12.3296 108.2848,13.5504 L108.2848,21.6064 L104.8752,21.6064 L104.9072,11.088 C104.9072,9.3184 104.864,7.7072 104.7792,6.2544 L107.7504,6.2544 L107.8752,9.192 L107.9696,9.192 C108.3296,8.1824 108.8976,7.3696 109.6752,6.76 C110.4352,6.2112 111.256,5.9376 112.1408,5.9376 C112.456,5.9376 112.7408,5.96 112.9936,6 L112.9936,9.2528 L112.9936,9.2528 Z" id="Shape"></path>
                            <path d="M128.2496,13.2032 C128.2496,13.8144 128.2096,14.3296 128.1248,14.7504 L117.8912,14.7504 C117.9312,16.2672 118.4256,17.4272 119.376,18.2272 C120.2384,18.9424 121.3536,19.3008 122.7232,19.3008 C124.2384,19.3008 125.6208,19.0592 126.864,18.5744 L127.3984,20.9424 C125.9456,21.576 124.2304,21.8912 122.2512,21.8912 C119.8704,21.8912 118.0016,21.1904 116.6416,19.7904 C115.2848,18.3904 114.6048,16.5104 114.6048,14.152 C114.6048,11.8368 115.2368,9.9088 116.5024,8.3712 C117.8272,6.7296 119.6176,5.9088 121.8704,5.9088 C124.0832,5.9088 125.7584,6.7296 126.896,8.3712 C127.7968,9.6752 128.2496,11.288 128.2496,13.2032 L128.2496,13.2032 Z M124.9968,12.3184 C125.0192,11.3072 124.7968,10.4336 124.3344,9.696 C123.744,8.7472 122.8368,8.2736 121.616,8.2736 C120.5008,8.2736 119.5936,8.736 118.9008,9.664 C118.3328,10.4016 117.9952,11.2864 117.8912,12.3168 L124.9968,12.3168 L124.9968,12.3184 Z" id="Shape"></path>
                        </g>
                        <g id="Group" transform="translate(68.800000, 9.600000)" fill="#FFFFFF">
                            <path d="M9.68,6.4144 C9.68,8.2976 9.1152,9.7152 7.9872,10.6672 C6.9424,11.5456 5.4576,11.9856 3.5344,11.9856 C2.5808,11.9856 1.7648,11.944 1.0816,11.8608 L1.0816,1.5712 C1.9728,1.4272 2.9328,1.3536 3.9696,1.3536 C5.8016,1.3536 7.1824,1.752 8.1136,2.5488 C9.1568,3.4496 9.68,4.7376 9.68,6.4144 L9.68,6.4144 Z M7.912,6.4608 C7.912,5.24 7.5888,4.304 6.9424,3.6512 C6.296,3 5.352,2.6736 4.1088,2.6736 C3.5808,2.6736 3.1312,2.7088 2.7584,2.7824 L2.7584,10.6048 C2.9648,10.6368 3.3424,10.6512 3.8912,10.6512 C5.1744,10.6512 6.1648,10.2944 6.8624,9.5808 C7.56,8.8672 7.912,7.8272 7.912,6.4608 L7.912,6.4608 Z" id="Shape"></path>
                            <path d="M19.0544,8.0592 C19.0544,9.2192 18.7232,10.1696 18.0608,10.9152 C17.3664,11.6816 16.4464,12.064 15.2976,12.064 C14.1904,12.064 13.3088,11.6976 12.6512,10.9616 C11.9952,10.2272 11.6672,9.3008 11.6672,8.184 C11.6672,7.016 12.0048,6.0576 12.6832,5.3136 C13.3616,4.5696 14.2736,4.1968 15.4224,4.1968 C16.5296,4.1968 17.4192,4.5632 18.0928,5.2976 C18.7328,6.0112 19.0544,6.9328 19.0544,8.0592 L19.0544,8.0592 Z M17.3152,8.1136 C17.3152,7.4176 17.1648,6.8208 16.8656,6.3232 C16.5136,5.7216 16.0128,5.4208 15.3616,5.4208 C14.688,5.4208 14.176,5.7216 13.824,6.3232 C13.5232,6.8208 13.3744,7.4272 13.3744,8.144 C13.3744,8.84 13.5248,9.4368 13.824,9.9344 C14.1872,10.536 14.6928,10.8368 15.3456,10.8368 C15.9856,10.8368 16.488,10.5312 16.8496,9.9184 C17.16,9.4112 17.3152,8.8096 17.3152,8.1136 L17.3152,8.1136 Z" id="Shape"></path>
                            <path d="M31.624,4.3504 L29.264,11.8928 L27.728,11.8928 L26.7504,8.6176 C26.5024,7.8 26.3008,6.9872 26.144,6.1808 L26.1136,6.1808 C25.968,7.0096 25.7664,7.8208 25.5072,8.6176 L24.4688,11.8928 L22.9152,11.8928 L20.696,4.3504 L22.4192,4.3504 L23.272,7.936 C23.4784,8.784 23.648,9.592 23.784,10.3568 L23.8144,10.3568 C23.9392,9.7264 24.1456,8.9232 24.4368,7.952 L25.5072,4.352 L26.8736,4.352 L27.8992,7.8752 C28.1472,8.7344 28.3488,9.5616 28.504,10.3584 L28.5504,10.3584 C28.664,9.5824 28.8352,8.7552 29.0624,7.8752 L29.9776,4.352 L31.624,4.352 L31.624,4.3504 Z" id="Shape"></path>
                            <path d="M40.3168,11.8928 L38.64,11.8928 L38.64,7.5728 C38.64,6.2416 38.1344,5.576 37.12,5.576 C36.6224,5.576 36.2208,5.7584 35.9088,6.1248 C35.6,6.4912 35.4432,6.9232 35.4432,7.4176 L35.4432,11.8912 L33.7664,11.8912 L33.7664,6.5056 C33.7664,5.8432 33.7456,5.1248 33.7056,4.3472 L35.1792,4.3472 L35.2576,5.5264 L35.304,5.5264 C35.4992,5.16 35.7904,4.8576 36.1728,4.616 C36.6272,4.3344 37.136,4.192 37.6928,4.192 C38.3968,4.192 38.9824,4.4192 39.448,4.8752 C40.0272,5.4336 40.3168,6.2672 40.3168,7.3744 L40.3168,11.8928 L40.3168,11.8928 Z" id="Shape"></path>
                            <polygon id="Shape" points="44.9408 11.8928 43.2656 11.8928 43.2656 0.8896 44.9408 0.8896"></polygon>
                            <path d="M54.8128,8.0592 C54.8128,9.2192 54.4816,10.1696 53.8192,10.9152 C53.1248,11.6816 52.2032,12.064 51.056,12.064 C49.9472,12.064 49.0656,11.6976 48.4096,10.9616 C47.7536,10.2272 47.4256,9.3008 47.4256,8.184 C47.4256,7.016 47.7632,6.0576 48.4416,5.3136 C49.12,4.5696 50.032,4.1968 51.1792,4.1968 C52.288,4.1968 53.176,4.5632 53.8512,5.2976 C54.4912,6.0112 54.8128,6.9328 54.8128,8.0592 L54.8128,8.0592 Z M53.072,8.1136 C53.072,7.4176 52.9216,6.8208 52.6224,6.3232 C52.272,5.7216 51.7696,5.4208 51.12,5.4208 C50.4448,5.4208 49.9328,5.7216 49.5824,6.3232 C49.2816,6.8208 49.1328,7.4272 49.1328,8.144 C49.1328,8.84 49.2832,9.4368 49.5824,9.9344 C49.9456,10.536 50.4512,10.8368 51.104,10.8368 C51.744,10.8368 52.2448,10.5312 52.6064,9.9184 C52.9184,9.4112 53.072,8.8096 53.072,8.1136 L53.072,8.1136 Z" id="Shape"></path>
                            <path d="M62.928,11.8928 L61.4224,11.8928 L61.2976,11.024 L61.2512,11.024 C60.736,11.7168 60.0016,12.064 59.048,12.064 C58.336,12.064 57.76,11.8352 57.3264,11.3808 C56.9328,10.968 56.736,10.4544 56.736,9.8448 C56.736,8.9232 57.12,8.2208 57.8928,7.7344 C58.664,7.248 59.7488,7.0096 61.1456,7.0208 L61.1456,6.88 C61.1456,5.8864 60.624,5.3904 59.5792,5.3904 C58.8352,5.3904 58.1792,5.5776 57.6128,5.9488 L57.272,4.848 C57.9728,4.4144 58.8384,4.1968 59.8592,4.1968 C61.8304,4.1968 62.8192,5.2368 62.8192,7.3168 L62.8192,10.0944 C62.8192,10.848 62.856,11.448 62.928,11.8928 L62.928,11.8928 Z M61.1872,9.3008 L61.1872,8.1376 C59.3376,8.1056 58.4128,8.6128 58.4128,9.6576 C58.4128,10.0512 58.5184,10.3456 58.7344,10.5424 C58.9504,10.7392 59.2256,10.8368 59.5536,10.8368 C59.9216,10.8368 60.2656,10.72 60.5792,10.488 C60.8944,10.2544 61.088,9.9584 61.16,9.5952 C61.1776,9.5136 61.1872,9.4144 61.1872,9.3008 L61.1872,9.3008 Z" id="Shape"></path>
                            <path d="M72.456,11.8928 L70.968,11.8928 L70.8896,10.6816 L70.8432,10.6816 C70.368,11.6032 69.5584,12.064 68.4208,12.064 C67.512,12.064 66.7552,11.7072 66.1552,10.9936 C65.5552,10.28 65.256,9.3536 65.256,8.216 C65.256,6.9952 65.5808,6.0064 66.2336,5.2512 C66.8656,4.5472 67.64,4.1952 68.5616,4.1952 C69.5744,4.1952 70.2832,4.536 70.6864,5.2192 L70.7184,5.2192 L70.7184,0.8896 L72.3968,0.8896 L72.3968,9.8608 C72.3968,10.5952 72.416,11.272 72.456,11.8928 L72.456,11.8928 Z M70.7184,8.712 L70.7184,7.4544 C70.7184,7.2368 70.7024,7.0608 70.672,6.9264 C70.5776,6.5232 70.3744,6.184 70.0656,5.9104 C69.7536,5.6368 69.3776,5.4992 68.944,5.4992 C68.3184,5.4992 67.8288,5.7472 67.4688,6.2448 C67.112,6.7424 66.9312,7.3776 66.9312,8.1536 C66.9312,8.8992 67.1024,9.504 67.4464,9.9696 C67.8096,10.4656 68.2992,10.7136 68.912,10.7136 C69.4624,10.7136 69.9024,10.5072 70.2368,10.0928 C70.56,9.7104 70.7184,9.2496 70.7184,8.712 L70.7184,8.712 Z" id="Shape"></path>
                            <path d="M86.7968,8.0592 C86.7968,9.2192 86.4656,10.1696 85.8032,10.9152 C85.1088,11.6816 84.1904,12.064 83.04,12.064 C81.9344,12.064 81.0528,11.6976 80.3936,10.9616 C79.7376,10.2272 79.4096,9.3008 79.4096,8.184 C79.4096,7.016 79.7472,6.0576 80.4256,5.3136 C81.104,4.5696 82.016,4.1968 83.1664,4.1968 C84.272,4.1968 85.1632,4.5632 85.8352,5.2976 C86.4752,6.0112 86.7968,6.9328 86.7968,8.0592 L86.7968,8.0592 Z M85.0592,8.1136 C85.0592,7.4176 84.9088,6.8208 84.6096,6.3232 C84.256,5.7216 83.7568,5.4208 83.104,5.4208 C82.432,5.4208 81.92,5.7216 81.5664,6.3232 C81.2656,6.8208 81.1168,7.4272 81.1168,8.144 C81.1168,8.84 81.2672,9.4368 81.5664,9.9344 C81.9296,10.536 82.4352,10.8368 83.088,10.8368 C83.728,10.8368 84.232,10.5312 84.5936,9.9184 C84.9024,9.4112 85.0592,8.8096 85.0592,8.1136 L85.0592,8.1136 Z" id="Shape"></path>
                            <path d="M95.8128,11.8928 L94.1376,11.8928 L94.1376,7.5728 C94.1376,6.2416 93.632,5.576 92.616,5.576 C92.1184,5.576 91.7168,5.7584 91.4064,6.1248 C91.096,6.4912 90.9408,6.9232 90.9408,7.4176 L90.9408,11.8912 L89.2624,11.8912 L89.2624,6.5056 C89.2624,5.8432 89.2432,5.1248 89.2032,4.3472 L90.6752,4.3472 L90.7536,5.5264 L90.8,5.5264 C90.9968,5.16 91.288,4.8576 91.6688,4.616 C92.1248,4.3344 92.632,4.192 93.1904,4.192 C93.8928,4.192 94.4784,4.4192 94.944,4.8752 C95.5248,5.4336 95.8128,6.2672 95.8128,7.3744 L95.8128,11.8928 L95.8128,11.8928 Z" id="Shape"></path>
                            <path d="M107.0976,5.6064 L105.2512,5.6064 L105.2512,9.2704 C105.2512,10.2016 105.5792,10.6672 106.2288,10.6672 C106.5296,10.6672 106.7792,10.6416 106.976,10.5888 L107.0192,11.8608 C106.688,11.9856 106.2528,12.048 105.7168,12.048 C105.0544,12.048 104.5392,11.8464 104.1664,11.4432 C103.792,11.04 103.6064,10.3616 103.6064,9.4096 L103.6064,5.6064 L102.504,5.6064 L102.504,4.3504 L103.6064,4.3504 L103.6064,2.968 L105.2496,2.472 L105.2496,4.3488 L107.096,4.3488 L107.096,5.6064 L107.0976,5.6064 Z" id="Shape"></path>
                            <path d="M115.9744,11.8928 L114.296,11.8928 L114.296,7.6048 C114.296,6.2528 113.7904,5.576 112.7776,5.576 C112,5.576 111.4688,5.968 111.1776,6.752 C111.128,6.9168 111.0992,7.1184 111.0992,7.3552 L111.0992,11.8912 L109.424,11.8912 L109.424,0.8896 L111.0992,0.8896 L111.0992,5.4352 L111.1312,5.4352 C111.6592,4.608 112.416,4.1952 113.3968,4.1952 C114.0912,4.1952 114.6656,4.4224 115.1216,4.8784 C115.6896,5.4464 115.9744,6.2912 115.9744,7.408 L115.9744,11.8928 L115.9744,11.8928 Z" id="Shape"></path>
                            <path d="M125.1312,7.7648 C125.1312,8.0656 125.1088,8.3184 125.0688,8.5248 L120.04,8.5248 C120.0624,9.2704 120.3024,9.8384 120.768,10.232 C121.1936,10.584 121.7424,10.76 122.4144,10.76 C123.1584,10.76 123.8368,10.6416 124.448,10.4032 L124.7104,11.568 C123.9952,11.8784 123.1536,12.0336 122.1792,12.0336 C121.0112,12.0336 120.0912,11.6896 119.4256,11.0016 C118.7568,10.3136 118.4256,9.3904 118.4256,8.232 C118.4256,7.0944 118.7344,6.1472 119.3568,5.392 C120.0064,4.5856 120.8848,4.1824 121.9936,4.1824 C123.0784,4.1824 123.9024,4.5856 124.4592,5.392 C124.9088,6.032 125.1312,6.824 125.1312,7.7648 L125.1312,7.7648 Z M123.5312,7.3312 C123.544,6.8336 123.4336,6.4048 123.2064,6.0432 C122.9152,5.5776 122.472,5.344 121.872,5.344 C121.3248,5.344 120.8784,5.5712 120.5376,6.0272 C120.2592,6.3904 120.0944,6.824 120.04,7.3312 L123.5312,7.3312 L123.5312,7.3312 Z" id="Shape"></path>
                        </g>
                    </g>
                </g>
            </g>
        </g>
    </g>
</svg>