<?xml version="1.0" encoding="UTF-8"?>
<svg width="220px" height="56px" viewBox="0 0 220 56" version="1.1" xmlns="http://www.w3.org/2000/svg" xmlns:xlink="http://www.w3.org/1999/xlink">
    <!-- Generator: Sketch 41.2 (35397) - http://www.bohemiancoding.com/sketch -->
    <title>tabtor-logo-svg</title>
    <desc>Created with Sketch.</desc>
    <defs></defs>
    <g id="home" stroke="none" stroke-width="1" fill="none" fill-rule="evenodd">
        <g id="tabtor__home" transform="translate(-32.000000, -16.000000)">
            <g id="main-header-nav">
                <g id="tabtor-logo-svg" transform="translate(32.000000, 16.000000)">
                    <g id="tabtor-logo">
                        <path d="M48.9930864,21.691358 L48.7165432,21.691358 C40.6210182,21.5435002 34.0975539,15.0093367 33.962963,6.91358025 L33.962963,6.72345679 L33.962963,6.65777778 L33.962963,6.65777778 C34.0165857,4.36559996 32.8243837,2.22421486 30.8477546,1.06236641 C28.8711254,-0.099482039 26.4202326,-0.099482039 24.4436034,1.06236641 C22.4669743,2.22421486 21.2747723,4.36559996 21.3283951,6.65777778 L21.3283951,6.72345679 L21.3283951,6.92740741 C21.3817173,13.2603054 23.6157734,19.381375 27.654321,24.2597531 C28.7793393,25.6225635 30.0317575,26.8749817 31.3945679,28 C36.2770882,32.0402884 42.4035082,34.273294 48.7407407,34.3224691 L49.0034568,34.3224691 C52.4923964,34.3224691 55.3207407,31.4941248 55.3207407,28.0051852 C55.3207407,24.5162456 52.4923964,21.6879012 49.0034568,21.6879012 L48.9930864,21.691358 Z" id="Shape" fill="#D7E940"></path>
                        <path d="M54.7866667,25.4696296 C53.7846804,23.1617813 51.5090632,21.6682378 48.9930864,21.6671605 L48.7407407,21.6671605 C33.6561258,21.8023877 21.4629269,34.0017386 21.3353086,49.0864198 L21.3353086,49.2834568 L21.3353086,49.3525926 C21.3353086,52.8415322 24.163653,55.6698765 27.6525926,55.6698765 C31.1415322,55.6698765 33.9698765,52.8415322 33.9698765,49.3525926 L33.9698765,49.2869136 L33.9698765,49.0760494 C34.1102661,40.9777591 40.6424178,34.4471361 48.7407407,34.308642 L49,34.308642 C51.1298301,34.3082364 53.1161629,33.2349504 54.2837187,31.4536615 C55.4512745,29.6723727 55.6429491,27.4227679 54.7935802,25.4696296 L54.7866667,25.4696296 Z" id="Shape" fill="#FDAC4F"></path>
                        <path d="M33.9767901,49.2696296 L33.9767901,49.0725926 C33.9244416,42.7401181 31.6916233,36.6190954 27.654321,31.7402469 C26.5293027,30.3774365 25.2768845,29.1250183 23.9140741,28 C19.0370618,23.9641897 12.9187372,21.7314651 6.58864198,21.6775309 L6.31901235,21.6775309 C2.88763724,21.7578038 0.147785358,24.5625009 0.147785358,27.9948148 C0.147785358,31.4271287 2.88763724,34.2318258 6.31901235,34.3120988 L6.56790123,34.3120988 C14.6596091,34.4522096 21.1876178,40.9741059 21.3353086,49.065679 L21.3353086,49.2765432 L21.3353086,49.3422222 C21.3353086,52.8311618 24.163653,55.6595062 27.6525926,55.6595062 C31.1415322,55.6595062 33.9698765,52.8311618 33.9698765,49.3422222 L33.9767901,49.2696296 Z" id="Shape" fill="#FFB0DF"></path>
                        <path d="M33.9837037,6.66123457 C33.9034308,3.22985946 31.0987337,0.49000758 27.6664198,0.49000758 C24.2341058,0.49000758 21.4294087,3.22985946 21.3491358,6.66123457 L21.3491358,6.66123457 L21.3491358,6.72691358 L21.3491358,6.91703704 C21.2127043,15.011444 14.6897629,21.5435554 6.59555556,21.691358 L6.31901235,21.691358 C2.83007276,21.691358 0.00172839506,24.5197024 0.00172839506,28.008642 C0.00172839506,31.4975816 2.83007276,34.3259259 6.31901235,34.3259259 L6.56790123,34.3259259 C12.9067471,34.276571 19.0345635,32.0422805 23.9175309,28 C25.2791391,26.8748141 26.5303946,25.6224011 27.654321,24.2597531 C31.6913766,19.383211 33.925339,13.2648396 33.9802469,6.93432099 L33.9802469,6.73037037 L33.9837037,6.66123457 Z" id="Shape" fill="#ACD6F2"></path>
                        <path d="M6.31555556,34.3155556 C4.05922484,34.3155556 1.97428926,33.1118175 0.846123895,31.1577778 C-0.282041476,29.2037381 -0.282041476,26.7962619 0.846123895,24.8422222 C1.97428926,22.8881825 4.05922484,21.6844444 6.31555556,21.6844444 L6.56790123,21.6844444 C12.9020096,21.7326945 19.0258204,23.9631974 23.9071605,28 C19.0258204,32.0368026 12.9020096,34.2673055 6.56790123,34.3155556 L6.30518519,34.3155556" id="Shape" fill="#AC83EA"></path>
                        <path d="M27.654321,24.2528395 C23.62125,19.37609 21.3909811,13.2590251 21.3387654,6.9308642 L21.3387654,6.72691358 L21.3387654,6.66123457 C21.3387655,3.1732496 24.166336,0.345679145 27.654321,0.345679145 C31.142306,0.345679145 33.9698765,3.1732496 33.9698765,6.66123457 L33.9698765,6.66123457 L33.9698765,6.72691358 L33.9698765,6.91703704 C33.9211153,13.2500069 31.6906259,19.37256 27.654321,24.2528395" id="Shape" fill="#7CC714"></path>
                        <path d="M27.654321,55.654321 C25.978769,55.6561582 24.371315,54.9913612 23.1865201,53.8065663 C22.0017252,52.6217714 21.3369282,51.0143175 21.3387654,49.3387654 L21.3387654,49.2730864 L21.3387654,49.0760494 C21.3896774,42.7455603 23.6200065,36.6258888 27.654321,31.7471605 C31.6911236,36.6285006 33.9216264,42.7523114 33.9698765,49.0864198 L33.9698765,49.2765432 L33.9698765,49.3422222 L33.9698765,49.3422222 C33.9707953,51.0171755 33.3055929,52.6237406 32.1208977,53.8077873 C30.9362025,54.9918341 29.3292735,55.6561568 27.654321,55.654321" id="Shape" fill="#FD7F20"></path>
                        <path d="M48.9930864,34.3155556 L48.7407407,34.3155556 C42.4066324,34.2673055 36.2828216,32.0368026 31.4014815,28 C36.277028,23.9671779 42.3929266,21.7368891 48.72,21.6844444 L48.9965432,21.6844444 C52.4845282,21.6844444 55.3120988,24.512015 55.3120988,28 C55.3120988,31.487985 52.4845282,34.3155556 48.9965432,34.3155556" id="Shape" fill="#D5A809"></path>
                    </g>
                    <path d="M73.1007407,33.9940741 L73.1007407,25.7945679 L71.9980247,25.7945679 C71.5063454,25.7798263 71.1133489,25.3807368 71.1061728,24.8888889 C71.1117759,24.3986723 71.5078081,24.0026401 71.9980247,23.997037 L73.1007407,23.997037 L73.1007407,20.802963 C73.091382,20.5317531 73.1923764,20.2683359 73.3806484,20.0728979 C73.5689204,19.8774598 73.8283829,19.7667003 74.0997531,19.7659259 C74.6724928,19.7659259 75.1367901,20.2302232 75.1367901,20.802963 L75.1367901,24.0074074 L78.6558025,24.0074074 C79.1437067,24.0159407 79.5413423,24.4014808 79.5649383,24.8888889 C79.5554758,25.3882904 79.1448897,25.786528 78.6454321,25.7807407 L75.122963,25.7807407 L75.122963,33.731358 C75.122963,35.3871605 76.0424691,35.9920988 77.4079012,35.9920988 C77.8247004,35.9761163 78.2385094,35.9146824 78.6419753,35.8088889 C79.119601,35.8126499 79.5058686,36.1989175 79.5096296,36.6765432 C79.5044235,37.0353032 79.2728219,37.351502 78.9323457,37.4646914 C78.2975503,37.7192435 77.6181337,37.8438424 76.934321,37.8311111 C74.7565432,37.8276543 73.1007407,36.7525926 73.1007407,33.9940741 Z M81.4385185,33.6518519 L81.4385185,33.6 C81.4385185,30.7377778 83.802963,29.2133333 87.2459259,29.2133333 C88.6586253,29.200141 90.0655937,29.3946474 91.4217284,29.7906173 L91.4217284,29.317037 C91.4217284,26.8730864 89.9249383,25.611358 87.377284,25.611358 C86.1633666,25.6100444 84.9633174,25.869387 83.8582716,26.3718519 C83.741977,26.4203973 83.617808,26.4473397 83.4918519,26.451358 C83.0060796,26.451588 82.6080332,26.0657893 82.5930864,25.5802469 C82.5961862,25.2158347 82.8126425,24.8870917 83.1461728,24.7402469 C84.5431889,24.1207647 86.0565454,23.8072501 87.5846914,23.8207407 C89.5032099,23.8207407 90.9723457,24.3185185 91.971358,25.3175309 C92.8908642,26.237037 93.3540741,27.5506173 93.3540741,29.2859259 L93.3540741,36.7214815 C93.3645144,36.984684 93.2664581,37.2406341 93.0828317,37.4294883 C92.8992053,37.6183426 92.6461079,37.7235434 92.382716,37.7204938 C92.1262413,37.730983 91.8767677,37.6353802 91.6929864,37.4561771 C91.5092052,37.276974 91.4073408,37.029991 91.411358,36.7733333 L91.411358,35.5392593 C90.2464475,37.0645182 88.4175945,37.9345426 86.4992593,37.8760494 C84,37.882963 81.4385185,36.4380247 81.4385185,33.6518519 Z M91.4632099,32.6148148 L91.4632099,31.3012346 C90.1629182,30.9134285 88.813674,30.7143597 87.4567901,30.7101235 C84.9091358,30.7101235 83.4883951,31.8128395 83.4883951,33.5204938 L83.4883951,33.5723457 C83.4883951,35.28 85.0646914,36.2790123 86.9037037,36.2790123 C89.3995062,36.2962963 91.4459259,34.7545679 91.4459259,32.6009877 L91.4632099,32.6148148 Z M97.357037,19.3061728 C97.3350811,18.9308293 97.5228522,18.5742098 97.844742,18.3799116 C98.1666317,18.1856133 98.5696646,18.1856133 98.8915543,18.3799116 C99.2134441,18.5742098 99.4012152,18.9308293 99.3792593,19.3061728 L99.3792593,26.7417284 C100.481975,25.1135802 102.085926,23.7204938 104.564444,23.7204938 C107.820741,23.7204938 111.05284,26.2958025 111.05284,30.7619753 L111.05284,30.8138272 C111.05284,35.2523457 107.848395,37.882963 104.564444,37.882963 C102.040988,37.882963 100.416296,36.5002469 99.3792593,34.9930864 L99.3792593,36.7007407 C99.388618,36.9719506 99.2876236,37.2353678 99.0993516,37.4308058 C98.9110796,37.6262439 98.6516171,37.7370034 98.3802469,37.7377778 C97.8075072,37.7377778 97.3432099,37.2734805 97.3432099,36.7007407 L97.357037,19.3061728 Z M108.996049,30.8414815 L108.996049,30.7896296 C108.996049,27.5851852 106.790617,25.5353086 104.215309,25.5353086 C101.691852,25.5353086 99.3032099,27.6646914 99.3032099,30.7654321 L99.3032099,30.817284 C99.3032099,33.9698765 101.695309,36.0716049 104.215309,36.0716049 C106.842469,36.0681481 108.996049,34.1254321 108.996049,30.8414815 Z M114.71358,33.9940741 L114.71358,25.7945679 L113.610864,25.7945679 C113.117832,25.7816422 112.722803,25.3820376 112.715556,24.8888889 C112.721159,24.3986723 113.117191,24.0026401 113.607407,23.997037 L114.710123,23.997037 L114.710123,20.802963 C114.700765,20.5317531 114.801759,20.2683359 114.990031,20.0728979 C115.178303,19.8774598 115.437766,19.7667003 115.709136,19.7659259 C116.281876,19.7659259 116.746173,20.2302232 116.746173,20.802963 L116.746173,24.0074074 L120.265185,24.0074074 C120.753089,24.0159407 121.150725,24.4014808 121.174321,24.8888889 C121.164858,25.3882904 120.754272,25.786528 120.254815,25.7807407 L116.735802,25.7807407 L116.735802,33.731358 C116.735802,35.3871605 117.655309,35.9920988 119.020741,35.9920988 C119.43754,35.9761163 119.851349,35.9146824 120.254815,35.8088889 C120.732441,35.8126499 121.118708,36.1989175 121.122469,36.6765432 C121.117263,37.0353032 120.885661,37.351502 120.545185,37.4646914 C119.91039,37.7192435 119.230973,37.8438424 118.54716,37.8311111 C116.365926,37.8276543 114.71358,36.7525926 114.71358,33.9940741 Z M122.408395,30.865679 L122.408395,30.8138272 C122.399133,28.2820932 123.741238,25.9377331 125.929152,24.6638447 C128.117067,23.3899562 130.818395,23.3800733 133.015572,24.6379187 C135.212749,25.8957642 136.571972,28.2302414 136.581235,30.7619753 L136.581235,30.8138272 C136.592441,32.7033152 135.844899,34.5182614 134.506208,35.8517528 C133.167518,37.1852441 131.349677,37.9257184 129.460247,37.9071605 C127.584141,37.932462 125.777321,37.1990606 124.449618,35.8733096 C123.121914,34.5475586 122.385855,32.7418198 122.408395,30.865679 L122.408395,30.865679 Z M134.50716,30.865679 L134.50716,30.8138272 C134.50716,27.8962963 132.325926,25.5076543 129.463704,25.5076543 C126.521975,25.5076543 124.496296,27.8997531 124.496296,30.7619753 L124.496296,30.8138272 C124.496296,33.731358 126.649877,36.0958025 129.515556,36.0958025 C132.443457,36.0958025 134.493333,33.731358 134.493333,30.865679 L134.50716,30.865679 Z M139.865185,24.8888889 C139.86481,24.330676 140.30636,23.8723195 140.864198,23.8518519 C141.141528,23.8441437 141.409805,23.9509255 141.605983,24.1471036 C141.802161,24.3432816 141.908943,24.6115583 141.901235,24.8888889 L141.901235,27.4365432 C142.88642,25.1930864 144.839506,23.8241975 146.567901,23.8241975 C146.842084,23.8157513 147.107056,23.9236294 147.297369,24.1211862 C147.487682,24.3187429 147.585592,24.587558 147.566914,24.8612346 C147.586536,25.3869399 147.197781,25.8389801 146.675062,25.8982716 C144.047901,26.2128395 141.894321,28.1832099 141.894321,32.0997531 L141.894321,36.7249383 C141.916277,37.1002818 141.728506,37.4569013 141.406616,37.6511996 C141.084726,37.8454978 140.681693,37.8454978 140.359804,37.6511996 C140.037914,37.4569013 139.850143,37.1002818 139.872099,36.7249383 L139.865185,24.8888889 Z M158.804938,24.8888889 C158.804563,24.330676 159.246113,23.8723195 159.803951,23.8518519 C160.081281,23.8441437 160.349558,23.9509255 160.545736,24.1471036 C160.741914,24.3432816 160.848696,24.6115583 160.840988,24.8888889 L160.840988,26.2716049 C161.73284,24.9303704 162.942716,23.6962963 165.227654,23.6962963 C167.09578,23.6317403 168.818339,24.7004909 169.590123,26.402963 C170.561481,24.9061728 172.009877,23.6962963 174.370864,23.6962963 C177.481975,23.6962963 179.414321,25.7980247 179.414321,29.1614815 L179.414321,36.6765432 C179.436277,37.0518867 179.248506,37.4085062 178.926616,37.6028045 C178.604726,37.7971027 178.201693,37.7971027 177.879804,37.6028045 C177.557914,37.4085062 177.370143,37.0518867 177.392099,36.6765432 L177.392099,29.6592593 C177.392099,27.0320988 176.078519,25.5595062 173.873086,25.5595062 C171.82321,25.5595062 170.14321,27.0839506 170.14321,29.762963 L170.14321,36.7007407 C170.165166,37.0760843 169.977395,37.4327038 169.655505,37.627002 C169.333615,37.8213003 168.930582,37.8213003 168.608693,37.627002 C168.286803,37.4327038 168.099032,37.0760843 168.120988,36.7007407 L168.120988,29.6039506 C168.120988,27.0562963 166.779753,25.5595062 164.626173,25.5595062 C162.472593,25.5595062 160.844444,27.3466667 160.844444,29.8424691 L160.844444,36.7007407 C160.857808,36.9730359 160.758138,37.238764 160.568998,37.4351035 C160.379858,37.6314429 160.118036,37.7409652 159.845432,37.7377778 C159.568102,37.7454859 159.299825,37.6387041 159.103647,37.4425261 C158.907469,37.246348 158.800687,36.9780713 158.808395,36.7007407 L158.804938,24.8888889 Z M182.369877,33.6518519 L182.369877,33.6 C182.369877,30.7377778 184.734321,29.2133333 188.177284,29.2133333 C189.58998,29.2001911 190.996941,29.3946965 192.353086,29.7906173 L192.353086,29.317037 C192.353086,26.8730864 190.856296,25.611358 188.305185,25.611358 C187.091279,25.6101518 185.891253,25.8694896 184.786173,26.3718519 C184.669878,26.4203973 184.545709,26.4473397 184.419753,26.451358 C183.935323,26.4497241 183.539347,26.0644508 183.524444,25.5802469 C183.527544,25.2158347 183.744001,24.8870917 184.077531,24.7402469 C185.474547,24.1207647 186.987903,23.8072501 188.516049,23.8207407 C190.434568,23.8207407 191.903704,24.3185185 192.902716,25.3175309 C193.822222,26.237037 194.285432,27.5506173 194.285432,29.2859259 L194.285432,36.7214815 C194.295872,36.984684 194.197816,37.2406341 194.01419,37.4294883 C193.830563,37.6183426 193.577466,37.7235434 193.314074,37.7204938 C193.057599,37.730983 192.808126,37.6353802 192.624344,37.4561771 C192.440563,37.276974 192.338699,37.029991 192.342716,36.7733333 L192.342716,35.5392593 C191.177805,37.0645182 189.348953,37.9345426 187.430617,37.8760494 C184.917531,37.882963 182.369877,36.4380247 182.369877,33.6518519 Z M192.394568,32.6148148 L192.394568,31.3012346 C191.096497,30.9140827 189.749628,30.7150208 188.395062,30.7101235 C185.837037,30.7101235 184.419753,31.8024691 184.419753,33.5308642 L184.419753,33.582716 C184.419753,35.2903704 185.996049,36.2893827 187.835062,36.2893827 C190.330864,36.2962963 192.377284,34.7545679 192.377284,32.6009877 L192.394568,32.6148148 Z M198.62716,33.9940741 L198.62716,25.7945679 L197.520988,25.7945679 C197.029308,25.7798263 196.636312,25.3807368 196.629136,24.8888889 C196.634739,24.3986723 197.030771,24.0026401 197.520988,23.997037 L198.623704,23.997037 L198.623704,20.802963 C198.614345,20.5317531 198.715339,20.2683359 198.903611,20.0728979 C199.091883,19.8774598 199.351346,19.7667003 199.622716,19.7659259 C200.195456,19.7659259 200.659753,20.2302232 200.659753,20.802963 L200.659753,24.0074074 L204.178765,24.0074074 C204.66667,24.0159407 205.064305,24.4014808 205.087901,24.8888889 C205.078439,25.3882904 204.667853,25.786528 204.168395,25.7807407 L200.649383,25.7807407 L200.649383,33.731358 C200.649383,35.3871605 201.568889,35.9920988 202.934321,35.9920988 C203.35112,35.9761163 203.764929,35.9146824 204.168395,35.8088889 C204.646021,35.8126499 205.032288,36.1989175 205.036049,36.6765432 C205.030843,37.0353032 204.799242,37.351502 204.458765,37.4646914 C203.82397,37.7192435 203.144553,37.8438424 202.460741,37.8311111 C200.279506,37.8276543 198.62716,36.7525926 198.62716,33.9940741 Z M207.825679,19.3061728 C207.803723,18.9308293 207.991494,18.5742098 208.313384,18.3799116 C208.635274,18.1856133 209.038307,18.1856133 209.360196,18.3799116 C209.682086,18.5742098 209.869857,18.9308293 209.847901,19.3061728 L209.847901,26.3753086 C210.778711,24.6899753 212.572774,23.6655585 214.497284,23.7204938 C217.781235,23.7204938 219.682469,25.9259259 219.682469,29.1580247 L219.682469,36.697284 C219.704425,37.0726275 219.516654,37.429247 219.194764,37.6235452 C218.872874,37.8178435 218.469842,37.8178435 218.147952,37.6235452 C217.826062,37.429247 217.638291,37.0726275 217.660247,36.697284 L217.660247,29.6592593 C217.660247,27.1358025 216.277531,25.5595062 213.902716,25.5595062 C211.565926,25.5595062 209.830617,27.2671605 209.830617,29.8148148 L209.830617,36.697284 C209.843981,36.9695791 209.744311,37.2353072 209.555171,37.4316467 C209.366031,37.6279861 209.104209,37.7375084 208.831605,37.734321 C208.554274,37.7420291 208.285998,37.6352473 208.08982,37.4390693 C207.893642,37.2428912 207.78686,36.9746145 207.794568,36.697284 L207.825679,19.3061728 Z" id="tabtor-logo-text" fill="#5E5E5E"></path>
                </g>
            </g>
        </g>
    </g>
</svg>