<?xml version="1.0" encoding="UTF-8"?>
<svg width="319px" height="48px" viewBox="0 0 319 48" version="1.1" xmlns="http://www.w3.org/2000/svg" xmlns:xlink="http://www.w3.org/1999/xlink">
    <!-- Generator: Sketch 41.2 (35397) - http://www.bohemiancoding.com/sketch -->
    <title>thinkster logo</title>
    <desc>Created with Sketch.</desc>
    <defs></defs>
    <g id="Thinkster-Website" stroke="none" stroke-width="1" fill="none" fill-rule="evenodd">
        <g id="home" transform="translate(-24.000000, -56.000000)">
            <g id="site-header" transform="translate(0.000000, 40.000000)">
                <g id="thinkster-logo" transform="translate(24.000000, 16.000000)">
                    <g id="Group">
                        <path d="M21.245,24 C17.0207553,20.5089292 11.7248927,18.5759393 6.245,18.525 C13.2693607,18.4047622 18.9347622,12.7393607 19.055,5.715 C19.1059393,11.1948927 21.0389292,16.4907553 24.53,20.715 C23.5431797,21.9130847 22.4430847,23.0131797 21.245,24" id="Path" fill="#ACD6F2"></path>
                        <path d="M27.755,24 C26.5687092,23.0212533 25.4787467,21.9312908 24.5,20.745 C27.9910708,16.5207553 29.9240607,11.2248927 29.975,5.745 C30.094997,12.763648 35.7514974,18.4267797 42.77,18.555 C37.2901073,18.6059393 31.9942447,20.5389292 27.77,24.03" id="Shape" fill="#D7E940"></path>
                        <path d="M19.025,42.285 C18.9047622,35.2606393 13.2393607,29.5952378 6.215,29.475 C11.6948927,29.4240607 16.9907553,27.4910708 21.215,24 C22.4116024,24.9774188 23.5116446,26.0674149 24.5,27.255 C21.0089292,31.4792447 19.0759393,36.7751073 19.025,42.255" id="Shape" fill="#FFB0DF"></path>
                        <path d="M5.975,29.475 C2.94709886,29.475 0.4925,27.0204011 0.4925,23.9925 C0.4925,20.9645989 2.94709886,18.51 5.975,18.51 L6.2,18.51 C11.6798927,18.5609393 16.9757553,20.4939292 21.2,23.985 C16.9757553,27.4760708 11.6798927,29.4090607 6.2,29.46 L5.975,29.46" id="Shape" fill="#AC83EA"></path>
                        <path d="M24.5,20.745 C21.0089292,16.5207553 19.0759393,11.2248927 19.025,5.745 L19.025,5.565 L19.025,5.565 C19.025,2.53709886 21.4795989,0.0825 24.5075,0.0825 C27.5354011,0.0825 29.99,2.53709886 29.99,5.565 L29.99,5.565 L29.99,5.565 L29.99,5.73 C29.9390607,11.2098927 28.0060708,16.5057553 24.515,20.73" id="Shape" fill="#7CC714"></path>
                        <path d="M24.5,48 C21.476241,48 19.025,45.548759 19.025,42.525 L19.025,42.525 L19.025,42.36 C19.0759393,36.8801073 21.0089292,31.5842447 24.5,27.36 C27.9910708,31.5842447 29.9240607,36.8801073 29.975,42.36 L29.975,42.525 L29.975,42.525 L29.975,42.525 C29.975,45.548759 27.523759,48 24.5,48" id="Shape" fill="#FD7F20"></path>
                        <path d="M43.025,29.475 L42.8,29.475 C37.3201073,29.4240607 32.0242447,27.4910708 27.8,24 C32.0242447,20.5089292 37.3201073,18.5759393 42.8,18.525 L43.04,18.525 C46.0679011,18.525 48.5225,20.9795989 48.5225,24.0075 C48.5225,27.0354011 46.0679011,29.49 43.04,29.49" id="Shape" fill="#D5A809"></path>
                        <path d="M29.975,42.3 C29.9240607,36.8201073 27.9910708,31.5242447 24.5,27.3 C25.4766135,26.0981176 26.5666391,24.9930225 27.755,24 C31.9792447,27.4910708 37.2751073,29.4240607 42.755,29.475 C35.7306393,29.5952378 30.0652378,35.2606393 29.945,42.285" id="Shape" fill="#FDB824"></path>
                    </g>
                    <polygon id="Shape" fill="#242424" points="69.725 19.005 69.725 30.9 65.615 30.9 65.615 19.005 59.165 19.005 59.165 15.705 76.19 15.705 76.19 19.02"></polygon>
                    <polygon id="Shape" fill="#242424" points="93.035 30.9 93.035 24.57 82.535 24.57 82.535 30.9 78.5 30.9 78.5 15.705 82.61 15.705 82.61 21.24 93.11 21.24 93.11 15.705 97.22 15.705 97.22 30.9"></polygon>
                    <polygon id="Shape" fill="#242424" points="101.54 30.9 101.54 15.705 105.65 15.705 105.65 30.9"></polygon>
                    <path d="M124.115,30.9 L124.115,22.38 C124.114801,21.8762662 124.064555,21.3737983 123.965,20.88 C123.881542,20.447759 123.696446,20.0415757 123.425,19.695 C123.134955,19.3466923 122.756827,19.082521 122.33,18.93 C121.743459,18.7190064 121.123208,18.6173258 120.5,18.63 C119.903091,18.6334343 119.308784,18.7089818 118.73,18.855 C118.105651,19.0082457 117.493881,19.2088259 116.9,19.455 C116.304038,19.7014229 115.727418,19.9922402 115.175,20.325 C114.648146,20.6293634 114.14654,20.9754719 113.675,21.36 L113.675,30.9 L109.64,30.9 L109.64,15.705 L113.75,15.705 L113.75,17.79 C114.27,17.5 114.82,17.205 115.4,16.905 C116.00374,16.603466 116.62483,16.3380001 117.26,16.11 C117.94007,15.8690913 118.636954,15.6785764 119.345,15.54 C120.115657,15.3879197 120.899484,15.3125518 121.685,15.315 C122.613509,15.3035856 123.538575,15.4299608 124.43,15.69 C125.176489,15.90373 125.874395,16.2603245 126.485,16.74 C127.038789,17.1808853 127.480759,17.7461956 127.775,18.39 C128.081278,19.0683878 128.234894,19.8057429 128.225,20.55 L128.225,30.9 L124.115,30.9 Z" id="Shape" fill="#242424"></path>
                    <path d="M146.795,30.9 C146.698274,29.4535671 146.048308,28.0999189 144.98,27.12 C144.484099,26.6642042 143.92291,26.2850222 143.315,25.995 C142.703317,25.7012425 142.065551,25.4652188 141.41,25.29 C140.775058,25.1211254 140.128193,25.0007784 139.475,24.93 C138.877322,24.862689 138.276451,24.8276382 137.675,24.825 L136.46,24.825 L136.46,30.825 L132.35,30.825 L132.35,15.705 L136.46,15.705 L136.46,21.57 L137.3,21.57 C137.897446,21.567326 138.493948,21.5222124 139.085,21.435 C139.71088,21.3407971 140.327958,21.1953072 140.93,21 C141.536959,20.8111379 142.1246,20.5650319 142.685,20.265 C143.235046,19.9679073 143.740093,19.5941727 144.185,19.155 C144.632292,18.7171036 145.006985,18.2107613 145.295,17.655 C145.601119,17.0457391 145.789419,16.384145 145.85,15.705 L150.035,15.705 C149.974237,16.4483921 149.81276,17.1800831 149.555,17.88 C149.325347,18.4966008 149.017858,19.0813346 148.64,19.62 C148.287476,20.1191908 147.874313,20.5726621 147.41,20.97 C146.581271,21.6831588 145.637993,22.2511546 144.62,22.65 C144.194973,22.8192792 143.758977,22.9595998 143.315,23.07 C143.858347,23.1561101 144.394749,23.2814376 144.92,23.445 C145.489331,23.6257312 146.041497,23.8566371 146.57,24.135 C147.104958,24.4321968 147.607648,24.7840796 148.07,25.185 C148.583293,25.624188 149.03712,26.1284399 149.42,26.685 C149.857955,27.240076 150.221064,27.8503007 150.5,28.5 C150.778518,29.2678649 150.950125,30.0703813 151.01,30.885 L146.795,30.9 Z" id="Shape" fill="#242424"></path>
                    <path d="M168.005,19.98 C167.715,19.84 167.335,19.68 166.865,19.5 C166.395,19.32 165.86,19.15 165.26,18.99 C164.617739,18.8201036 163.966797,18.6849079 163.31,18.585 C162.59521,18.4754455 161.873137,18.4202872 161.15,18.42 L159.65,18.42 C159.297446,18.4501131 158.946883,18.5001935 158.6,18.57 C158.367864,18.6145743 158.141452,18.6850136 157.925,18.78 C157.788757,18.8409003 157.662365,18.9217911 157.55,19.02 C157.475647,19.0848107 157.418888,19.1673692 157.385,19.26 C157.373452,19.3345555 157.373452,19.4104445 157.385,19.485 C157.391737,19.7225051 157.515213,19.9413952 157.715,20.07 C157.989735,20.2659537 158.293396,20.4177843 158.615,20.52 C159.053559,20.6627249 159.499143,20.7828825 159.95,20.88 L161.57,21.24 L163.34,21.645 C163.95,21.785 164.54,21.955 165.11,22.155 C165.665084,22.3419364 166.206406,22.5674873 166.73,22.83 C167.211506,23.0658404 167.660274,23.3633384 168.065,23.715 C168.437288,24.0436444 168.742845,24.4408687 168.965,24.885 C169.189853,25.3526369 169.302831,25.8661725 169.295,26.385 C169.310591,27.0316454 169.177147,27.6732039 168.905,28.26 C168.658055,28.7730402 168.305327,29.2280086 167.87,29.595 C167.422002,29.9666006 166.915008,30.260657 166.37,30.465 C165.791401,30.6878962 165.19402,30.8585767 164.585,30.975 C163.960491,31.0905432 163.329181,31.1656991 162.695,31.2 L160.88,31.2 C159.481256,31.2074567 158.084972,31.0818916 156.71,30.825 C155.555994,30.610288 154.422023,30.2991984 153.32,29.895 L153.32,26.4 C154.410968,26.99255 155.576304,27.4364875 156.785,27.72 C158.145687,28.0463436 159.540746,28.2075057 160.94,28.2 C161.65247,28.2121105 162.364761,28.1669653 163.07,28.065 C163.513709,28.0010529 163.947297,27.8800515 164.36,27.705 C164.607466,27.6085121 164.824874,27.4480446 164.99,27.24 C165.089912,27.0991439 165.147191,26.9325166 165.155,26.76 C165.148004,26.510356 165.02624,26.2778973 164.825,26.13 C164.554599,25.9197991 164.2502,25.7574531 163.925,25.65 C163.487816,25.4986827 163.042031,25.3734622 162.59,25.275 L160.97,24.93 L159.2,24.555 C158.59,24.425 158,24.27 157.43,24.09 C156.87651,23.9164897 156.335293,23.7060164 155.81,23.46 C155.329142,23.2353024 154.880224,22.9477933 154.475,22.605 C154.103292,22.2875543 153.797512,21.9002321 153.575,21.465 C153.346368,20.9986753 153.233189,20.4842221 153.245,19.965 C153.231121,19.3651705 153.354244,18.7700775 153.605,18.225 C153.834208,17.7473054 154.161281,17.3231325 154.565,16.98 C154.981549,16.6264519 155.452661,16.3427721 155.96,16.14 C156.498485,15.9238289 157.055877,15.7581178 157.625,15.645 C158.209381,15.5279479 158.800549,15.4477895 159.395,15.405 L161.105,15.405 C161.645,15.405 162.25,15.435 162.92,15.495 C163.54,15.555 164.155,15.64 164.765,15.75 C165.375,15.86 165.96,15.985 166.52,16.125 C167.08,16.265 167.58,16.415 168.02,16.575 L168.005,19.98 Z" id="Shape" fill="#242424"></path>
                    <polygon id="Shape" fill="#242424" points="181.04 19.005 181.04 30.9 176.93 30.9 176.93 19.005 170.48 19.005 170.48 15.705 187.505 15.705 187.505 19.02"></polygon>
                    <path d="M206.66,30.15 C205.443365,30.553971 204.193546,30.8501129 202.925,31.035 C201.663157,31.2166137 200.389844,31.3068485 199.115,31.305 C197.597418,31.3305773 196.083445,31.1489006 194.615,30.765 C193.439003,30.4790094 192.32889,29.9697832 191.345,29.265 C190.47921,28.6103079 189.784486,27.7560541 189.32,26.775 C188.844046,25.730509 188.608266,24.5926156 188.63,23.445 C188.620218,22.3355569 188.861218,21.2382398 189.335,20.235 C189.80784,19.2465034 190.48831,18.371613 191.33,17.67 C192.251731,16.9066857 193.310676,16.3263026 194.45,15.96 C195.762687,15.5359313 197.135616,15.3282188 198.515,15.345 C199.801322,15.3291765 201.08208,15.5164811 202.31,15.9 C203.414903,16.2329172 204.437156,16.7951562 205.31,17.55 C206.143267,18.2956226 206.799271,19.2181278 207.23,20.25 C207.700898,21.4220799 207.930479,22.6771195 207.905,23.94 L207.905,24.96 L192.905,24.96 C193.175744,25.976741 193.869302,26.8286703 194.81,27.3 C195.419671,27.6124588 196.071465,27.8347761 196.745,27.96 C197.650351,28.1252663 198.569821,28.2006327 199.49,28.185 C200.232117,28.1872252 200.973621,28.1421337 201.71,28.05 C202.391069,27.9670802 203.067083,27.8469 203.735,27.69 C204.30913,27.5519695 204.875027,27.3816997 205.43,27.18 C205.856089,27.0329506 206.267809,26.8471743 206.66,26.625 L206.66,30.15 Z M203.825,21.93 C203.782407,21.5240577 203.670803,21.1283701 203.495,20.76 C203.291038,20.3299647 202.987685,19.9546293 202.61,19.665 C202.132317,19.3062231 201.593632,19.0368806 201.02,18.87 C200.220839,18.6402733 199.39126,18.5340467 198.56,18.555 C197.751601,18.5406926 196.946207,18.6571962 196.175,18.9 C195.573448,19.0947011 195.006452,19.3832616 194.495,19.755 C194.082517,20.0544817 193.726919,20.4253198 193.445,20.85 C193.223538,21.1794167 193.061113,21.5448725 192.965,21.93 L203.825,21.93 Z" id="Shape" fill="#242424"></path>
                    <path d="M224.705,18.99 L223.97,18.795 L223.04,18.63 C222.69537,18.6073904 222.34963,18.6073904 222.005,18.63 C221.305787,18.6230638 220.60904,18.7139439 219.935,18.9 C219.315438,19.0739367 218.716851,19.3153838 218.15,19.62 C217.621112,19.9154452 217.119185,20.2567557 216.65,20.64 C216.19364,21.0054988 215.757967,21.3961022 215.345,21.81 L215.345,30.96 L211.235,30.96 L211.235,15.705 L215.345,15.705 L215.345,18.165 C215.835,17.795 216.335,17.44 216.845,17.1 C217.362489,16.7567582 217.903871,16.4509777 218.465,16.185 C219.038442,15.9182973 219.63619,15.7073273 220.25,15.555 C220.902461,15.3925064 221.572616,15.3118862 222.245,15.315 L223.055,15.315 L223.865,15.405 L224.6,15.525 L225.2,15.66 L225.2,19.095 L224.705,18.99 Z" id="Shape" fill="#242424"></path>
                    <polygon id="Shape" fill="#FD7F20" points="255.635 30.9 255.635 20.235 249.995 30.915 246.05 30.915 240.41 20.235 240.41 30.9 236.3 30.9 236.3 15.705 241.88 15.705 248 27.21 254.135 15.705 259.685 15.705 259.685 30.9"></polygon>
                    <path d="M276.41,28.035 L267.935,28.035 L266.435,30.915 L261.86,30.915 L269.81,15.705 L274.385,15.705 L282.335,30.915 L277.76,30.915 L276.41,28.035 Z M269.405,25.035 L275,25.035 L272.195,19.5 L269.405,25.035 Z" id="Shape" fill="#FD7F20"></path>
                    <polygon id="Shape" fill="#FD7F20" points="290.945 19.005 290.945 30.9 286.835 30.9 286.835 19.005 280.385 19.005 280.385 15.705 297.41 15.705 297.41 19.02"></polygon>
                    <polygon id="Shape" fill="#FD7F20" points="314.255 30.9 314.255 24.57 303.755 24.57 303.755 30.9 299.645 30.9 299.645 15.705 303.755 15.705 303.755 21.24 314.255 21.24 314.255 15.705 318.365 15.705 318.365 30.9"></polygon>
                    <ellipse id="Oval" fill="#FD7F20" cx="103.595" cy="9.6" rx="2.67" ry="2.67"></ellipse>
                </g>
            </g>
        </g>
    </g>
</svg>