<?xml version="1.0" encoding="UTF-8"?>
<svg width="90px" height="24px" viewBox="0 0 90 24" version="1.1" xmlns="http://www.w3.org/2000/svg" xmlns:xlink="http://www.w3.org/1999/xlink">
    <!-- Generator: Sketch 41.2 (35397) - http://www.bohemiancoding.com/sketch -->
    <title>forbes logo copy 2</title>
    <desc>Created with Sketch.</desc>
    <defs></defs>
    <g id="home" stroke="none" stroke-width="1" fill="none" fill-rule="evenodd">
        <g id="tabtor__home" transform="translate(-1107.000000, -1788.000000)" fill="#000000">
            <g id="intro" transform="translate(32.000000, 88.000000)">
                <g id="recognition" transform="translate(428.000000, 1607.000000)">
                    <g id="media-badges" transform="translate(0.000000, 57.000000)">
                        <g id="forbes-logo" transform="translate(632.000000, 0.000000)">
                            <path d="M37.3613882,59.5647135 C35.7924631,59.335563 34.420236,58.6690852 33.3723664,57.6273564 C32.4982898,56.7584807 31.9315538,55.8029837 31.5138295,54.4937937 C30.8615557,52.4496859 30.8613616,49.8216308 31.5131824,47.8192103 C32.1449452,45.8786715 33.5673821,44.1894904 35.3082238,43.312498 C37.719068,42.0979811 41.1122373,42.174278 43.3451474,43.4932081 C45.3546371,44.6801932 46.5718352,46.7893644 46.9105568,49.670985 C47.0139527,50.5507695 46.9468554,52.4091674 46.7839972,53.1762273 C46.1174241,56.3160236 44.1761963,58.5092838 41.332099,59.3358877 C41.0255996,59.4249116 40.550354,59.5291949 40.2760121,59.5674407 C39.6954296,59.6485427 37.9233362,59.6468544 37.3613882,59.5647135 Z M39.7086291,58.3039639 C40.1669871,58.1673437 40.7322349,57.6353433 41.0336875,57.0569153 C41.6559389,55.8628524 41.9338395,54.0970498 41.9407627,51.2931546 C41.9493683,47.7792112 41.4004257,45.5431599 40.2418488,44.3724082 C39.7553448,43.8807314 39.4103469,43.7280727 38.7882896,43.7290467 C37.4077158,43.7312544 36.531504,45.177649 36.1853415,48.025634 C36.0262361,49.334824 36.0253949,52.4536469 36.1838533,53.5982303 C36.6741747,57.1406146 37.9403532,58.8308996 39.7086291,58.3039639 Z M65.1502168,59.5639343 C64.5082956,59.4986112 62.546751,59.1710215 61.8615433,59.0146615 L61.3875271,58.9064822 L61.4244727,56.3660874 C61.5135044,50.2496727 61.5246981,46.9106602 61.4670474,43.6634638 C61.4106262,40.4824996 61.3941916,40.1462088 61.2719024,39.6756355 C61.1170027,39.0794157 60.8934529,38.6635813 60.6246108,38.471443 C60.5201797,38.3968343 60.2363911,38.2910576 59.9940126,38.2363836 C59.1883921,38.0547645 59.2321315,38.0838547 59.21065,37.7150322 C59.1982917,37.5025696 59.2211967,37.3621833 59.2753533,37.3191324 C59.3479504,37.2613415 65.9559668,35.9964362 66.1664465,36.0000075 C66.2269441,36.0010465 66.2354849,36.8489486 66.2044921,39.7675164 C66.1824929,41.8388963 66.179646,43.5336617 66.1982158,43.5336617 C66.216721,43.5336617 66.4581936,43.4287291 66.7348001,43.3004853 C67.5685019,42.913936 68.336918,42.7462126 69.4529848,42.7071227 C70.1959726,42.6811492 70.5402587,42.6974476 70.9214257,42.7765366 C73.4139901,43.2941218 75.2585512,45.3415413 75.9031252,48.3062119 C76.0712891,49.0795703 76.1337924,51.0017329 76.022244,51.9644376 C75.9270655,52.7850027 75.6555705,53.8906261 75.373076,54.6080767 C74.3069601,57.3154806 72.0197639,59.0817378 68.985439,59.540753 C68.2865141,59.6463999 66.0917142,59.6597113 65.1502168,59.5639343 Z M67.7433948,58.272601 C68.2134641,58.1830577 68.5785847,57.9953348 68.9706866,57.6415119 C69.9533353,56.7550393 70.6921173,54.9245628 70.9826997,52.656694 C71.101042,51.7330144 71.085125,49.6282587 70.9539715,48.8573028 C70.5992034,46.7722219 69.83674,45.4017996 68.7245553,44.8499944 C68.263221,44.6211036 68.1921121,44.6050001 67.644787,44.6050001 C67.2533969,44.6050001 66.9167457,44.6470121 66.6304337,44.7316855 L66.2019039,44.8583708 L66.1703287,47.2316267 C66.1297598,50.2716851 66.2283029,57.8826102 66.3110584,58.1009817 C66.3637915,58.240329 66.4219598,58.2699387 66.6839434,58.2905876 C67.3005009,58.3392228 67.4024733,58.3374047 67.7433948,58.272601 Z M83.7524093,59.5317273 C80.542415,58.9507669 78.2467427,56.6662751 77.4966376,53.3066138 C77.400165,52.874546 77.3575255,52.3909211 77.3333265,51.4554885 C77.2950222,49.9755882 77.414982,49.0569734 77.7955667,47.9155717 C78.5263255,45.7240647 79.8359199,44.1711142 81.7383257,43.2403569 C83.7462625,42.2579774 86.4914932,42.1936282 88.268504,43.0873085 C90.2692588,44.0935186 91.4464702,46.1026273 91.7451406,49.0204808 C91.785386,49.4133936 91.8086145,49.8808502 91.7969679,50.0594174 L91.7756805,50.3840851 L86.9876379,50.4007081 L82.1995954,50.417396 L82.217777,50.9851099 C82.2600929,52.3002738 82.541811,53.4636231 83.0629959,54.4748981 C83.2998746,54.9346275 83.4884199,55.185206 83.9465192,55.649286 C84.981254,56.6978328 86.0106831,57.1036674 87.634606,57.1036674 C88.8120116,57.1036674 89.6587187,56.8678938 90.5443124,56.2933618 C90.7923201,56.1323916 91.0436923,56.0007713 91.1027664,56.0007713 C91.2379316,56.0007713 91.5491543,56.4027748 91.5491543,56.577446 C91.5491543,56.8636731 90.6207917,57.7863137 89.715334,58.4001305 C88.9737698,58.9028459 87.7976583,59.3581599 86.7778699,59.5371167 C86.0636751,59.6626333 84.4592279,59.6597113 83.7524093,59.5317273 Z M85.7839629,48.9476903 L86.9096705,48.9084055 L86.8691015,48.1058919 C86.7262367,45.2761532 86.0361762,43.729696 84.9170036,43.7309947 C83.7006467,43.7323583 82.7286094,45.3016721 82.3244727,47.9166756 C82.2747806,48.2380966 82.2336293,48.6192564 82.2329822,48.7637336 L82.2318176,49.0263897 L83.445004,49.0067149 C84.112289,48.9957411 85.1648172,48.9692482 85.7839629,48.9476903 Z M96.693065,59.5947777 C95.5403114,59.4707547 93.7057146,59.0677122 93.094851,58.804147 L92.7965041,58.6755786 L92.7558058,57.1921069 C92.7334184,56.3762819 92.7076665,55.2853336 92.6984787,54.7679431 L92.6817852,53.8272509 L92.8606251,53.741214 C92.9589741,53.6939424 93.157419,53.6497226 93.3017073,53.6429695 L93.5639497,53.630762 L93.7873701,54.1826971 C94.6591174,56.3358933 95.6814939,57.49684 97.0168402,57.8499486 C97.5262491,57.9847506 98.4813989,57.9859194 98.8584896,57.8522213 C99.9148353,57.4780742 100.494124,56.6753009 100.499171,55.5787682 C100.505123,54.2800974 99.7938402,53.6561511 97.1066483,52.6027343 C95.441833,51.9500873 94.8610563,51.614251 94.1695724,50.903943 C93.4236083,50.1376623 93.0656051,49.26554 92.9983784,48.0506984 C92.9171758,46.5828108 93.3748867,45.3453074 94.3893694,44.2908517 C95.4101931,43.2296428 96.7354456,42.6544616 98.5407965,42.4891408 C100.130556,42.3435598 102.57084,42.6819284 103.849442,43.2252274 L104.082697,43.3243159 L104.124301,44.6464927 C104.147206,45.3736834 104.170888,46.3484657 104.176905,46.8127405 L104.187904,47.6568115 L103.874611,47.773562 C103.379372,47.9581031 103.346762,47.9349868 103.071255,47.2024066 C102.298957,45.1489484 101.401717,44.1773478 100.003673,43.8805366 C99.1516601,43.6996318 98.4399241,43.8941077 97.9225567,44.4491596 C97.5190023,44.8821365 97.3615145,45.2666729 97.3234043,45.912372 C97.2819942,46.611966 97.4066127,46.9901389 97.8325544,47.4578552 C98.3574921,48.0343351 99.2175928,48.5319208 100.931,49.2504754 C103.029586,50.1305196 104.030805,50.8776449 104.575154,51.9695673 C104.928692,52.6787714 105.028788,53.2451867 104.993266,54.3354857 C104.966544,55.1536483 104.940468,55.3217613 104.754964,55.8710341 C104.150247,57.6619011 102.785267,58.8409643 100.676458,59.3938084 C99.9621981,59.5810118 99.8602257,59.590622 98.4399241,59.6063359 C97.6214923,59.6151669 96.8353475,59.610102 96.693065,59.5947777 Z M15.0859907,59.2045272 C15.0322222,59.1827095 15.0051116,59.0208951 15.0051116,58.7213567 C15.0051116,58.1832525 14.9710129,58.2073428 16.0080124,58.0142954 C16.8034745,57.866182 17.0879748,57.714757 17.4392489,57.252625 C18.1202509,56.3564772 18.2674508,54.6311931 18.2690037,47.5270743 C18.2704272,40.8554129 18.1423147,39.4519394 17.4380195,38.4207948 C17.1255027,37.963338 16.5988827,37.7149023 15.7167829,37.6089308 L15.0373985,37.5273093 L15.018764,36.9949842 L15,36.4627239 L15.2128738,36.4246729 C15.3299867,36.4037643 19.44298,36.3949333 24.3529883,36.404998 L33.2802937,36.4234392 L33.322092,36.6831733 C33.3451264,36.8260271 33.3829131,38.2913173 33.4060768,39.9393306 L33.448134,42.9357536 L32.9878996,43.076075 C32.2950568,43.2872389 32.2991979,43.2898362 31.9875222,42.4621933 C31.221953,40.4292541 30.3440589,39.2578531 29.1427778,38.6663085 C28.3142524,38.2583311 27.931209,38.2090465 25.5914737,38.2090465 L23.5552616,38.2090465 L23.5201277,38.5499476 C23.4542597,39.1892183 23.350411,43.3015243 23.3511227,45.2381021 L23.3518344,47.1698749 L23.9503398,47.1664334 C24.27955,47.1645504 24.9286533,47.1402652 25.3928347,47.1124087 C26.0905301,47.0705266 26.2979041,47.0333846 26.5898453,46.8977385 C27.3070811,46.5644995 27.7950086,45.8311401 28.0940024,44.6370124 L28.2483197,44.0205333 L28.7764279,44.0016377 L29.304536,43.982742 L29.304536,47.884014 L29.304536,51.7853509 L28.7762338,51.7664552 L28.2479315,51.7475595 L28.0979493,51.1306909 C27.8162312,49.9716273 27.2739531,49.1419065 26.6038859,48.844446 C26.2944101,48.7071115 25.5287115,48.6289965 24.0473947,48.5838027 L23.3518344,48.5625045 L23.3518344,50.0281844 C23.3518344,51.6252897 23.439378,53.7859532 23.5515088,54.958588 C23.7078319,56.5933548 24.1241328,57.4965803 24.8716497,57.8235207 C25.0143852,57.8859218 25.4660788,57.9872181 25.8752623,58.0487751 C26.2845105,58.1102672 26.6703362,58.1870186 26.7325807,58.2193555 C26.8905214,58.3011718 26.8998387,59.1478402 26.7435156,59.2079686 C26.621097,59.2552403 15.202586,59.2516689 15.0859907,59.2045272 Z M46.9815363,59.1921898 C46.9225269,59.1545283 46.9032454,59.0047267 46.9168331,58.6897341 L46.936244,58.2410433 L47.1627055,58.1927328 C47.2872593,58.16611 47.5548074,58.1131892 47.7571992,58.075268 C48.3837211,57.9578032 48.7437301,57.6165775 48.9463808,56.9480867 C49.1114388,56.403619 49.1841653,54.661582 49.1879181,51.1632876 C49.1925768,46.8848816 49.1037392,45.8744508 48.6726859,45.301737 C48.4390424,44.9912898 48.2706197,44.9030451 47.7036896,44.7938269 C47.4239126,44.739932 47.1295127,44.6821412 47.0494748,44.6653883 C46.9198094,44.638311 46.9038924,44.5959094 46.9038924,44.2776702 C46.9038924,43.9682618 46.9233681,43.9123541 47.0494748,43.8602774 C47.243067,43.7804091 53.6529619,42.4945952 53.8577478,42.4945952 L54.0175002,42.4945952 L53.9861838,43.4523649 C53.9689081,43.9791057 53.9414092,44.7461656 53.9249745,45.1568703 L53.8950816,45.903606 L54.1273017,45.4833561 C54.8706776,44.1380631 55.7043147,43.3028879 56.8128759,42.7930947 C57.4214103,42.5131662 57.827488,42.4296616 58.5792754,42.4296616 C59.4708866,42.4296616 60.3623037,42.7216028 60.3623037,43.0136739 C60.3623037,43.2100329 58.7913728,47.3756493 58.7047351,47.4089602 C58.6624838,47.4251936 58.3557256,47.307534 58.0230861,47.147278 C57.3293375,46.813195 56.6785519,46.6498871 56.0467891,46.6512507 C55.2599973,46.652939 54.3811326,46.9437763 54.0341937,47.3172741 C53.8857643,47.4770106 53.8850526,47.4866207 53.8481717,49.8723439 C53.8116791,52.2349507 53.8900995,55.116831 54.0224824,56.2758947 C54.1352602,57.263339 54.3967261,57.7494315 54.936675,57.9758547 C55.1168089,58.0513075 56.2564925,58.2080571 56.6284069,58.2084467 C56.6566175,58.2084467 56.6711111,58.4349349 56.6607585,58.7116816 L56.6418652,59.2149165 L51.8538226,59.2303707 C49.2202698,59.2390069 47.0277992,59.2218644 46.9815363,59.1921898 Z" id="forbes-logo-copy-2"></path>
                        </g>
                    </g>
                </g>
            </g>
        </g>
    </g>
</svg>